<?xml version="1.0" encoding="utf-8"?>
<!-- Generator: Adobe Illustrator 19.1.0, SVG Export Plug-In . SVG Version: 6.00 Build 0)  -->
<svg version="1.1" xmlns="http://www.w3.org/2000/svg" xmlns:xlink="http://www.w3.org/1999/xlink" x="0px" y="0px"
	 viewBox="0 0 129.1 39.7" style="enable-background:new 0 0 129.1 39.7;" xml:space="preserve">
<style type="text/css">
	.st0{opacity:0.9;fill:#FFFFFF;}
	.st1{fill:#E8407E;}
	.st2{fill:#F9B833;}
	.st3{fill:#F19220;}
	.st4{clip-path:url(#SVGID_1_);fill:url(#SVGID_2_);}
	.st5{clip-path:url(#SVGID_3_);fill:url(#SVGID_7_);}
	.st6{clip-path:url(#SVGID_8_);fill:url(#SVGID_9_);}
	.st7{fill:#085BA7;}
</style>
<g id="Layer_1">
</g>
<g id="AW">
	<g>
		<path class="st0" d="M123.1,39.7H6c-3.3,0-6-2.7-6-6V6c0-3.3,2.7-6,6-6h117.1c3.3,0,6,2.7,6,6v27.7
			C129.1,37,126.4,39.7,123.1,39.7z"/>
		<g>
			<polygon class="st1" points="10.8,27.9 20,33.2 20,22.5 			"/>
			<polygon class="st2" points="10.8,6.5 10.8,17.2 20,11.8 			"/>
			<polygon class="st3" points="20,11.8 20,11.8 10.8,17.2 20,22.5 			"/>
			<g>
				<defs>
					<polygon id="SVGID_6_" points="20,22.5 29.3,27.9 29.3,17.2 					"/>
				</defs>
				<clipPath id="SVGID_1_">
					<use xlink:href="#SVGID_6_"  style="overflow:visible;"/>
				</clipPath>
				
					<linearGradient id="SVGID_2_" gradientUnits="userSpaceOnUse" x1="-526.4182" y1="458.5088" x2="-525.319" y2="458.5088" gradientTransform="matrix(8.3819 0 0 8.3819 4432.3994 -3820.6636)">
					<stop  offset="0" style="stop-color:#2B2A64"/>
					<stop  offset="0.1199" style="stop-color:#4C296C"/>
					<stop  offset="0.2143" style="stop-color:#602871"/>
					<stop  offset="1" style="stop-color:#B03E7D"/>
				</linearGradient>
				<rect x="20" y="17.2" class="st4" width="9.2" height="10.7"/>
			</g>
			<g>
				<defs>
					<polygon id="SVGID_5_" points="20,22.5 29.3,17.2 20,11.8 					"/>
				</defs>
				<clipPath id="SVGID_3_">
					<use xlink:href="#SVGID_5_"  style="overflow:visible;"/>
				</clipPath>
				
					<linearGradient id="SVGID_7_" gradientUnits="userSpaceOnUse" x1="-511.9651" y1="433.1659" x2="-510.867" y2="433.1659" gradientTransform="matrix(0 8.9471 -8.9471 0 3900.2183 4593.4282)">
					<stop  offset="0" style="stop-color:#E65A25"/>
					<stop  offset="0.1" style="stop-color:#E65A25"/>
					<stop  offset="0.627" style="stop-color:#ED7E23"/>
					<stop  offset="1" style="stop-color:#F19220"/>
				</linearGradient>
				<rect x="20" y="11.8" class="st5" width="9.2" height="10.7"/>
			</g>
			<g>
				<defs>
					<polygon id="SVGID_4_" points="20,33.2 29.3,27.9 20,22.5 					"/>
				</defs>
				<clipPath id="SVGID_8_">
					<use xlink:href="#SVGID_4_"  style="overflow:visible;"/>
				</clipPath>
				
					<linearGradient id="SVGID_9_" gradientUnits="userSpaceOnUse" x1="-526.4001" y1="458.695" x2="-525.3007" y2="458.695" gradientTransform="matrix(8.3199 0 0 8.3199 4399.6108 -3788.4434)">
					<stop  offset="0" style="stop-color:#B01E3D"/>
					<stop  offset="0.13" style="stop-color:#BA1F43"/>
					<stop  offset="0.4592" style="stop-color:#CF1F4F"/>
					<stop  offset="0.7588" style="stop-color:#DE2057"/>
					<stop  offset="1" style="stop-color:#E5215A"/>
				</linearGradient>
				<rect x="20" y="22.5" class="st6" width="9.2" height="10.7"/>
			</g>
			<path class="st7" d="M83.6,28.7l-3.9-5.8l4-5.6h-1.4c-0.8,0-2,0.2-2.8,1.4c-0.4,0.6-1.4,2.1-1.4,2.1l0,0.1l-2.3-3.5h-3.5l4,5.7
				l-3.9,5.7h3.3l2.4-3.5l2.4,3.5H83.6z"/>
			<path class="st7" d="M87.6,28.7V17c-0.3,0.1-1.7,0.5-2.4,1.3c-0.3,0.3-0.5,0.7-0.5,1v9.4H87.6z"/>
			<path class="st7" d="M102.3,28.2c0.6,0.5,1.2,0.7,2.2,0.7c1.1,0,1.8-0.2,2.5-0.6v-2c-0.4,0.2-0.9,0.3-1.5,0.3l0,0
				c-0.4,0-0.7-0.1-0.9-0.3c-0.2-0.2-0.3-0.6-0.3-1v-5.6h2.5l1.3-2.4h-3.8V13c-1.1,0.4-2.1,1-2.4,1.4c-0.4,0.4-0.5,0.8-0.5,1.5v9.7
				C101.4,26.9,101.7,27.7,102.3,28.2"/>
			<path class="st7" d="M111.9,26.7c-0.5-0.3-0.6-0.8-0.6-1.3c0-0.3,0.1-0.6,0.2-0.8c0.3-0.5,1-0.8,2-0.8c0.1,0,0.2,0,0.2,0
				c1.2,0,1.8,0.2,1.8,0.2v0.9c0,0.6-0.3,1.4-1.1,1.8c-0.4,0.2-0.9,0.3-1.3,0.3C112.7,27,112.3,26.9,111.9,26.7 M113.4,17.2
				c-1.6,0-3.1,0.6-3.4,0.8c-0.2,0.2-0.4,0.4-0.4,0.7v1.5c1.1-0.3,2.4-0.6,3.3-0.6c0.9,0,1.6,0.1,2.1,0.5c0.5,0.5,0.6,1.2,0.6,1.6
				c0,0.1,0,0.2,0,0.2l0,0.1l0,0c0,0-1.3-0.2-2.6-0.2c-1.3,0-2.5,0.3-3.3,0.9c-0.7,0.5-1.3,1.6-1.3,2.7c0,1.3,0.6,2.1,1.2,2.7
				c0.7,0.5,1.9,0.8,2.9,0.8c1.1,0,1.9-0.2,2.3-0.4c0.5-0.2,0.7-0.4,0.7-0.4l0.1-0.1v0.6h2.7v-6.6c0-1.5-0.3-2.8-1.1-3.6
				C116.2,17.4,115,17.2,113.4,17.2"/>
			<path class="st7" d="M92.9,26.7c-0.5-0.3-0.6-0.8-0.6-1.3c0-0.3,0.1-0.6,0.2-0.8c0.3-0.5,1-0.8,2-0.8c0.1,0,0.2,0,0.2,0
				c1.2,0,1.8,0.2,1.8,0.2v0.9c0,0.6-0.3,1.4-1.2,1.8C95,26.9,94.5,27,94.1,27C93.7,27,93.2,26.9,92.9,26.7 M94.4,17.2
				c-1.6,0-3.1,0.6-3.4,0.8c-0.2,0.2-0.4,0.4-0.4,0.7v1.5c1.1-0.3,2.4-0.6,3.3-0.6c0.9,0,1.6,0.1,2.1,0.5c0.5,0.5,0.6,1.2,0.6,1.6
				c0,0.1,0,0.2,0,0.2l0,0.1l0,0c0,0-1.3-0.2-2.6-0.2c-1.3,0-2.5,0.3-3.3,0.9c-0.7,0.5-1.3,1.6-1.3,2.7c0,1.3,0.5,2.1,1.2,2.7
				c0.7,0.5,1.9,0.8,2.9,0.8c1.1,0,1.9-0.2,2.3-0.4c0.5-0.2,0.7-0.4,0.7-0.4l0.1-0.1v0.6h2.7v-6.6c0-1.5-0.3-2.8-1.1-3.6
				C97.2,17.4,95.9,17.2,94.4,17.2"/>
			<path class="st7" d="M64.8,26.7c-0.5-0.3-0.6-0.8-0.6-1.3c0-0.3,0.1-0.6,0.2-0.8c0.3-0.5,1-0.8,2-0.8c0.1,0,0.2,0,0.2,0
				c1.2,0,1.8,0.2,1.8,0.2v0.9c0,0.6-0.3,1.4-1.1,1.8C66.9,26.9,66.5,27,66,27C65.6,27,65.2,26.9,64.8,26.7 M66.3,17.2
				c-1.6,0-3.1,0.6-3.4,0.8c-0.2,0.2-0.4,0.4-0.4,0.7v1.5c1.1-0.3,2.4-0.6,3.3-0.6c0.9,0,1.6,0.1,2.1,0.5c0.5,0.5,0.6,1.2,0.6,1.6
				c0,0.1,0,0.2,0,0.2l0,0.1l0,0c0,0-1.3-0.2-2.6-0.2c-1.3,0-2.5,0.3-3.3,0.9c-0.7,0.5-1.3,1.6-1.3,2.7c0,1.3,0.6,2.1,1.2,2.7
				c0.7,0.5,1.9,0.8,2.9,0.8c1.1,0,1.9-0.2,2.3-0.4c0.5-0.2,0.7-0.4,0.7-0.4l0.1-0.1v0.6h2.7v-6.6c0-1.5-0.3-2.8-1.1-3.6
				C69.1,17.4,67.9,17.2,66.3,17.2"/>
			<polygon class="st7" points="38.5,23 34.7,17.4 38.3,17.4 40.4,20.6 42.4,17.4 46,17.4 42.2,23 46.1,28.8 42.5,28.8 40.3,25.4 
				38.1,28.8 34.5,28.8 			"/>
			<polygon class="st7" points="47.3,17.4 50.5,17.4 50.5,26 56,26 56,28.8 47.3,28.8 			"/>
		</g>
	</g>
</g>
</svg>
